<?xml version="1.0" encoding="utf-8"?>
<!-- Generator: Adobe Illustrator 27.5.0, SVG Export Plug-In . SVG Version: 6.00 Build 0)  -->
<svg version="1.1" xmlns="http://www.w3.org/2000/svg" xmlns:xlink="http://www.w3.org/1999/xlink" x="0px" y="0px"
	 viewBox="0 0 1000 253.9" style="enable-background:new 0 0 1000 253.9;" xml:space="preserve">
<style type="text/css">
	.st0{display:none;}
	.st1{display:inline;fill:#FFFFFF;stroke:#000000;stroke-miterlimit:10;}
	.st2{fill:#1D1D1B;}
</style>
<g id="Ebene_1" class="st0">
	<rect x="280.4" y="-46.6" class="st1" width="425.8" height="350.2"/>
</g>
<g id="Ebene_2">
	<g>
		<g>
			<path d="M0,116.7V0h52.1v107c0,28,12.6,41.3,34.2,41.3c20.5,0,34.2-13.3,34.2-41.3V0h52.1v116.7c0,24.3-4.9,39.4-15.2,52.5
				c-14.6,18.8-40,31.8-71,31.8c-31.2,0-57-13-71.3-31.8C4.5,156.1,0,141,0,116.7z"/>
			<path d="M208.1,38.9h44V47c12.1-7.9,19.1-12.1,37.3-12.1c43.7,0,75.8,35.5,75.8,82.8c0,46.4-31.8,81.9-75.8,81.9
				c-13.6,0-26.1-3-37.3-8.5v62.8h-44V38.9z M286.1,158.7c21.5,0,35.8-16.4,35.8-42.2c0-23.7-14.9-40.9-36.1-40.9
				c-20.9,0-36.1,16.1-36.1,41.9C249.7,143.2,264.2,158.7,286.1,158.7z"/>
		</g>
		<g>
			<path d="M634.8,116.7V0h52.1v107c0,28,12.6,41.3,34.2,41.3c20.5,0,34.2-13.3,34.2-41.3V0h52.1v116.7c0,24.3-4.9,39.4-15.2,52.5
				c-14.6,18.8-40,31.8-71,31.8c-31.2,0-57-13-71.3-31.8C639.3,156.1,634.8,141,634.8,116.7z"/>
			<path d="M842.9,39h44v8.2c12.1-7.9,19.1-12.1,37.3-12.1c43.7,0,75.8,35.5,75.8,82.8c0,46.4-31.8,81.9-75.8,81.9
				c-13.6,0-26.1-3-37.3-8.5v62.8h-44V39z M920.8,158.8c21.5,0,35.8-16.4,35.8-42.2c0-23.7-14.9-40.9-36.1-40.9
				c-20.9,0-36.1,16.1-36.1,41.9C884.4,143.4,899,158.8,920.8,158.8z"/>
		</g>
		<g>
			<polygon class="st2" points="400.8,0 400.8,23.3 548.1,201 599.2,201 599.2,168.1 454.4,0 			"/>
			<polygon class="st2" points="540.5,40 540.5,0 599.2,0 599.2,105.4 			"/>
			<polygon class="st2" points="459.5,161 459.5,201 400.8,201 400.8,95.6 			"/>
		</g>
	</g>
</g>
</svg>
