<?xml version="1.0" encoding="utf-8"?>
<!-- Generator: Adobe Illustrator 27.5.0, SVG Export Plug-In . SVG Version: 6.00 Build 0)  -->
<svg version="1.1" xmlns="http://www.w3.org/2000/svg" xmlns:xlink="http://www.w3.org/1999/xlink" x="0px" y="0px"
	 viewBox="0 0 199.1 200.9" style="enable-background:new 0 0 199.1 200.9;" xml:space="preserve">
<style type="text/css">
	.st0{display:none;}
	.st1{display:inline;fill:#FFFFFF;stroke:#000000;stroke-miterlimit:10;}
	.st2{fill:#1D1D1B;}
</style>
<g id="Ebene_1" class="st0">
	<rect x="187.8" y="-46.6" class="st1" width="425.8" height="350.2"/>
</g>
<g id="Ebene_2">
	<g>
		<g>
			<path d="M-400.2,116.7V0h52.1v107c0,28,12.6,41.3,34.2,41.3c20.5,0,34.2-13.3,34.2-41.3V0h52.1v116.7c0,24.3-4.9,39.4-15.2,52.5
				c-14.6,18.8-40,31.8-71,31.8c-31.2,0-57-13-71.3-31.8C-395.6,156.1-400.2,141-400.2,116.7z"/>
			<path d="M-192,38.9h44V47c12.1-7.9,19.1-12.1,37.3-12.1c43.7,0,75.8,35.5,75.8,82.8c0,46.4-31.8,81.9-75.8,81.9
				c-13.6,0-26.1-3-37.3-8.5v62.8h-44V38.9z M-114.1,158.7c21.5,0,35.8-16.4,35.8-42.2c0-23.7-14.9-40.9-36.1-40.9
				c-20.9,0-36.1,16.1-36.1,41.9C-150.5,143.2-135.9,158.7-114.1,158.7z"/>
		</g>
		<g>
			<path d="M234.6,116.7V0h52.1v107c0,28,12.6,41.3,34.2,41.3c20.5,0,34.2-13.3,34.2-41.3V0h52.1v116.7c0,24.3-4.9,39.4-15.2,52.5
				C377.5,188,352,201,321,201c-31.2,0-57-13-71.3-31.8C239.1,156.1,234.6,141,234.6,116.7z"/>
			<path d="M442.7,39h44v8.2c12.1-7.9,19.1-12.1,37.3-12.1c43.7,0,75.8,35.5,75.8,82.8c0,46.4-31.8,81.9-75.8,81.9
				c-13.6,0-26.1-3-37.3-8.5v62.8h-44V39z M520.7,158.8c21.5,0,35.8-16.4,35.8-42.2c0-23.7-14.9-40.9-36.1-40.9
				c-20.9,0-36.1,16.1-36.1,41.9C484.3,143.4,498.8,158.8,520.7,158.8z"/>
		</g>
		<g>
			<polygon class="st2" points="0.6,0 0.6,23.3 148,201 199.1,201 199.1,168.1 54.3,0 			"/>
			<polygon class="st2" points="140.3,40 140.3,0 199.1,0 199.1,105.4 			"/>
			<polygon class="st2" points="59.4,161 59.4,201 0.6,201 0.6,95.6 			"/>
		</g>
	</g>
</g>
</svg>
