<?xml version="1.0" encoding="utf-8"?>
<!-- Generator: Adobe Illustrator 16.0.0, SVG Export Plug-In . SVG Version: 6.00 Build 0)  -->
<!DOCTYPE svg PUBLIC "-//W3C//DTD SVG 1.1//EN" "http://www.w3.org/Graphics/SVG/1.1/DTD/svg11.dtd">
<svg version="1.1" id="Ebene_1" xmlns="http://www.w3.org/2000/svg" xmlns:xlink="http://www.w3.org/1999/xlink" x="0px" y="0px"
	 width="1000px" height="253.922px" viewBox="0 0 1000 253.922" enable-background="new 0 0 1000 253.922" xml:space="preserve">
<g>
	<defs>
		<rect id="SVGID_1_" width="1000" height="253.922"/>
	</defs>
	<clipPath id="SVGID_2_">
		<use xlink:href="#SVGID_1_"  overflow="visible"/>
	</clipPath>
</g>
<g>
	<defs>
		<rect id="SVGID_3_" width="1000" height="253.922"/>
	</defs>
	<clipPath id="SVGID_4_">
		<use xlink:href="#SVGID_3_"  overflow="visible"/>
	</clipPath>
	<path clip-path="url(#SVGID_4_)" fill="#FFFFFF" stroke="#000000" stroke-miterlimit="10" d="M0,116.703V0h52.082v106.997
		c0,28.001,12.61,41.295,34.215,41.295c20.454,0,34.215-13.313,34.215-41.295V0h52.082v116.703c0,24.268-4.855,39.437-15.168,52.479
		c-14.557,18.807-40.038,31.848-70.977,31.848c-31.242,0-57.026-13.041-71.285-31.848C4.548,156.14,0,140.971,0,116.703"/>
	<path clip-path="url(#SVGID_4_)" fill="#FFFFFF" stroke="#000000" stroke-miterlimit="10" d="M208.117,38.855h43.98v8.191
		c12.133-7.888,19.11-12.133,37.31-12.133c43.681,0,75.833,35.491,75.833,82.807c0,46.414-31.848,81.908-75.833,81.908
		c-13.648,0-26.087-3.039-37.31-8.497v62.791h-43.98V38.855z M286.072,158.676c21.535,0,35.79-16.381,35.79-42.168
		c0-23.658-14.861-40.948-36.093-40.948c-20.929,0-36.097,16.077-36.097,41.862C249.672,143.208,264.23,158.676,286.072,158.676"/>
	<path clip-path="url(#SVGID_4_)" fill="#FFFFFF" stroke="#000000" stroke-miterlimit="10" d="M634.76,116.703V0h52.082v106.997
		c0,28.001,12.609,41.295,34.215,41.295c20.453,0,34.215-13.313,34.215-41.295V0h52.082v116.703
		c0,24.268-4.855,39.437-15.168,52.479c-14.557,18.807-40.038,31.848-70.977,31.848c-31.242,0-57.026-13.041-71.285-31.848
		C639.308,156.14,634.76,140.971,634.76,116.703"/>
	<path clip-path="url(#SVGID_4_)" fill="#FFFFFF" stroke="#000000" stroke-miterlimit="10" d="M842.877,39.024h43.98v8.191
		c12.133-7.888,19.109-12.132,37.31-12.132c43.681,0,75.833,35.49,75.833,82.806c0,46.414-31.848,81.908-75.833,81.908
		c-13.648,0-26.087-3.039-37.31-8.497v62.791h-43.98V39.024z M920.832,158.845c21.535,0,35.79-16.381,35.79-42.168
		c0-23.658-14.861-40.948-36.093-40.948c-20.93,0-36.098,16.077-36.098,41.862C884.432,143.378,898.99,158.845,920.832,158.845"/>
	<polygon clip-path="url(#SVGID_4_)" fill="#333333" stroke="#000000" stroke-miterlimit="10" points="400.763,0 400.763,23.283 
		548.128,201.029 599.237,201.029 599.237,168.092 454.428,0 	"/>
	<polygon clip-path="url(#SVGID_4_)" fill="#333333" stroke="#000000" stroke-miterlimit="10" points="540.461,40.036 540.461,0 
		599.237,0 599.237,105.397 	"/>
	<polygon clip-path="url(#SVGID_4_)" fill="#333333" stroke="#000000" stroke-miterlimit="10" points="459.539,160.994 
		459.539,201.029 400.763,201.029 400.763,95.633 	"/>
</g>
</svg>
